<svg width="24" height="24" viewBox="0 0 24 24" fill="none" xmlns="http://www.w3.org/2000/svg">
<path fill-rule="evenodd" clip-rule="evenodd" d="M9 3H15V1.25C15 1.184 14.974 1.12 14.927 1.073C14.88 1.026 14.816 1 14.75 1H9.25C9.184 1 9.12 1.026 9.073 1.073C9.026 1.12 9 1.184 9 1.25V3ZM20 4H4V22C4 22.552 4.448 23 5 23H19C19.552 23 20 22.552 20 22V4ZM10 7.5C10 7.224 9.776 7 9.5 7C9.224 7 9 7.224 9 7.5V19.5C9 19.776 9.224 20 9.5 20C9.776 20 10 19.776 10 19.5V7.5ZM15 7.5C15 7.224 14.776 7 14.5 7C14.224 7 14 7.224 14 7.5V19.5C14 19.776 14.224 20 14.5 20C14.776 20 15 19.776 15 19.5V7.5ZM23 3V4H21V22C21 23.105 20.105 24 19 24H5C3.895 24 3 23.105 3 22V4H1V3H8V1C8 0.448 8.448 0 9 0H15C15.552 0 16 0.448 16 1V3H23Z" fill="#FF7736"/>
<path fill-rule="evenodd" clip-rule="evenodd" d="M9 3H15V1.25C15 1.184 14.974 1.12 14.927 1.073C14.88 1.026 14.816 1 14.75 1H9.25C9.184 1 9.12 1.026 9.073 1.073C9.026 1.12 9 1.184 9 1.25V3ZM20 4H4V22C4 22.552 4.448 23 5 23H19C19.552 23 20 22.552 20 22V4ZM10 7.5C10 7.224 9.776 7 9.5 7C9.224 7 9 7.224 9 7.5V19.5C9 19.776 9.224 20 9.5 20C9.776 20 10 19.776 10 19.5V7.5ZM15 7.5C15 7.224 14.776 7 14.5 7C14.224 7 14 7.224 14 7.5V19.5C14 19.776 14.224 20 14.5 20C14.776 20 15 19.776 15 19.5V7.5ZM23 3V4H21V22C21 23.105 20.105 24 19 24H5C3.895 24 3 23.105 3 22V4H1V3H8V1C8 0.448 8.448 0 9 0H15C15.552 0 16 0.448 16 1V3H23Z" fill="url(#paint0_linear)"/>
<defs>
<linearGradient id="paint0_linear" x1="12" y1="0" x2="12" y2="24" gradientUnits="userSpaceOnUse">
<stop stop-color="#FFC40A"/>
<stop offset="1" stop-color="white" stop-opacity="0"/>
</linearGradient>
</defs>
</svg>
