<svg width="40" height="40" viewBox="0 0 40 40" fill="none" xmlns="http://www.w3.org/2000/svg">
<path d="M13.3344 20C13.3344 16.3183 16.3183 13.3328 20 13.3328C23.6817 13.3328 26.6672 16.3183 26.6672 20C26.6672 23.6817 23.6817 26.6672 20 26.6672C16.3183 26.6672 13.3344 23.6817 13.3344 20ZM9.73021 20C9.73021 25.6721 14.3279 30.2698 20 30.2698C25.6721 30.2698 30.2698 25.6721 30.2698 20C30.2698 14.3279 25.6721 9.73021 20 9.73021C14.3279 9.73021 9.73021 14.3279 9.73021 20ZM28.2763 9.3231C28.2763 10.6478 29.3506 11.7237 30.6769 11.7237C32.0016 11.7237 33.0775 10.6478 33.0775 9.3231C33.0775 7.99838 32.0032 6.92407 30.6769 6.92407C29.3506 6.92407 28.2763 7.99838 28.2763 9.3231ZM11.9192 36.2795C9.9693 36.1906 8.90953 35.8659 8.20517 35.5913C7.27141 35.2278 6.60582 34.7948 5.90468 34.0953C5.20517 33.3958 4.7706 32.7302 4.40872 31.7964C4.13409 31.0921 3.80937 30.0323 3.72052 28.0824C3.62359 25.9742 3.6042 25.3409 3.6042 20C3.6042 14.6591 3.6252 14.0275 3.72052 11.9176C3.80937 9.96769 4.1357 8.90953 4.40872 8.20355C4.77221 7.26979 5.20517 6.6042 5.90468 5.90307C6.6042 5.20355 7.26979 4.76898 8.20517 4.40711C8.90953 4.13247 9.9693 3.80775 11.9192 3.7189C14.0275 3.62197 14.6607 3.60258 20 3.60258C25.3409 3.60258 25.9725 3.62359 28.0824 3.7189C30.0323 3.80775 31.0905 4.13409 31.7964 4.40711C32.7302 4.76898 33.3958 5.20355 34.0969 5.90307C34.7964 6.60258 35.2294 7.26979 35.5929 8.20355C35.8675 8.90792 36.1922 9.96769 36.2811 11.9176C36.378 14.0275 36.3974 14.6591 36.3974 20C36.3974 25.3393 36.378 25.9725 36.2811 28.0824C36.1922 30.0323 35.8659 31.0921 35.5929 31.7964C35.2294 32.7302 34.7964 33.3958 34.0969 34.0953C33.3974 34.7948 32.7302 35.2278 31.7964 35.5913C31.0921 35.8659 30.0323 36.1906 28.0824 36.2795C25.9742 36.3764 25.3409 36.3958 20 36.3958C14.6607 36.3958 14.0275 36.3764 11.9192 36.2795V36.2795ZM11.7544 0.121163C9.6252 0.218094 8.17124 0.555735 6.89984 1.05008C5.58481 1.56058 4.47011 2.24556 3.35703 3.35703C2.24556 4.4685 1.56058 5.5832 1.05008 6.89984C0.555735 8.17124 0.218094 9.6252 0.121163 11.7544C0.0226171 13.8869 0 14.5687 0 20C0 25.4313 0.0226171 26.1131 0.121163 28.2456C0.218094 30.3748 0.555735 31.8288 1.05008 33.1002C1.56058 34.4152 2.24394 35.5315 3.35703 36.643C4.4685 37.7544 5.5832 38.4378 6.89984 38.9499C8.17286 39.4443 9.6252 39.7819 11.7544 39.8788C13.8885 39.9758 14.5687 40 20 40C25.433 40 26.1131 39.9774 28.2456 39.8788C30.3748 39.7819 31.8288 39.4443 33.1002 38.9499C34.4152 38.4378 35.5299 37.7544 36.643 36.643C37.7544 35.5315 38.4378 34.4152 38.9499 33.1002C39.4443 31.8288 39.7835 30.3748 39.8788 28.2456C39.9758 26.1115 39.9984 25.4313 39.9984 20C39.9984 14.5687 39.9758 13.8869 39.8788 11.7544C39.7819 9.6252 39.4443 8.17124 38.9499 6.89984C38.4378 5.58481 37.7544 4.47011 36.643 3.35703C35.5315 2.24556 34.4152 1.56058 33.1018 1.05008C31.8288 0.555735 30.3748 0.216478 28.2472 0.121163C26.1147 0.0242326 25.433 0 20.0016 0C14.5687 0 13.8885 0.0226171 11.7544 0.121163" fill="#DF8C54"/>
</svg>
