<svg id="Capa_1" enable-background="new 0 0 512.001 512.001" height="512" viewBox="0 0 512.001 512.001" width="512" xmlns="http://www.w3.org/2000/svg" xmlns:xlink="http://www.w3.org/1999/xlink"><linearGradient id="SVGID_1_" gradientUnits="userSpaceOnUse" x1="256.001" x2="256.001" y1="512.001" y2=".001"><stop offset="0" stop-color="#fd5900"/><stop offset="1" stop-color="#ffde00"/></linearGradient><g><g><g><path d="m346.001 300.001h-180c-8.284 0-15 6.716-15 15s6.716 15 15 15h180c8.284 0 15-6.716 15-15s-6.716-15-15-15zm0 60h-180c-8.284 0-15 6.716-15 15s6.716 15 15 15h180c8.284 0 15-6.716 15-15s-6.716-15-15-15zm0 60h-180c-8.284 0-15 6.716-15 15s6.716 15 15 15h180c8.284 0 15-6.716 15-15s-6.716-15-15-15zm160.008-235.994c-13.692-10.283-228.14-171.341-241-181-5.336-4.008-12.68-4.008-18.016 0-12.86 9.659-227.308 170.717-241 181-6.624 4.975-7.961 14.378-2.986 21.002s14.378 7.961 21.002 2.986l6.992-5.251v294.258c0 8.284 6.716 15 15 15h420c8.284 0 15-6.716 15-15v-294.259l6.992 5.251c6.623 4.974 16.026 3.64 21.002-2.986 4.974-6.623 3.638-16.026-2.986-21.001zm-115.008 297.994h-270v-167c0-24.813 20.187-45 45-45h180c24.813 0 45 20.187 45 45zm60 0h-30v-167c0-41.355-33.645-75-75-75h-180c-41.355 0-75 33.645-75 75v167h-30v-301.789l195-146.452 195 146.452zm-269.246-346.246c-5.858 5.858-5.858 15.355 0 21.213 5.857 5.858 15.355 5.858 21.213 0 14.14-14.139 32.974-21.926 53.033-21.926s38.894 7.787 53.033 21.926c5.856 5.858 15.354 5.858 21.213 0 5.858-5.858 5.858-15.355 0-21.213-19.806-19.806-46.173-30.713-74.246-30.713s-54.441 10.907-74.246 30.713zm74.246 29.246c-12.02 0-23.32 4.681-31.819 13.18-5.858 5.858-5.858 15.355 0 21.213 5.857 5.858 15.355 5.858 21.213 0 2.833-2.833 6.6-4.394 10.606-4.394 4.007 0 7.773 1.56 10.606 4.394 5.857 5.857 15.355 5.858 21.213 0s5.858-15.355 0-21.213c-8.499-8.499-19.8-13.18-31.819-13.18z" fill="url(#SVGID_1_)"/></g></g></g></svg>