<?xml version="1.0" encoding="iso-8859-1"?>
<!-- Generator: Adobe Illustrator 19.0.0, SVG Export Plug-In . SVG Version: 6.00 Build 0)  -->
<svg version="1.1" id="Capa_1" xmlns="http://www.w3.org/2000/svg" xmlns:xlink="http://www.w3.org/1999/xlink" x="0px" y="0px"
	 viewBox="0 0 480.179 480.179" style="enable-background:new 0 0 480.179 480.179;" xml:space="preserve">
<g>
	
		<linearGradient id="SVGID_1_" gradientUnits="userSpaceOnUse" x1="-26.7763" y1="619.266" x2="-26.7763" y2="555.425" gradientTransform="matrix(8 0 0 -8 454.3001 4941)">
		<stop  offset="0" style="stop-color:#FFF33B"/>
		<stop  offset="0.04" style="stop-color:#FEE72E"/>
		<stop  offset="0.117" style="stop-color:#FED51B"/>
		<stop  offset="0.196" style="stop-color:#FDCA10"/>
		<stop  offset="0.281" style="stop-color:#FDC70C"/>
		<stop  offset="0.669" style="stop-color:#F3903F"/>
		<stop  offset="0.888" style="stop-color:#ED683C"/>
		<stop  offset="1" style="stop-color:#E93E3A"/>
	</linearGradient>
	<path style="fill:url(#SVGID_1_);" d="M412.644,156l19.752-19.752c3.123-3.124,3.123-8.188,0-11.312l-45.2-45.2
		c-3.174-3.001-8.138-3.001-11.312,0L356.1,99.456c-32.002-21.606-69.414-33.819-108-35.256V16h40c4.418,0,8-3.582,8-8s-3.582-8-8-8
		h-96c-4.418,0-8,3.582-8,8s3.582,8,8,8h40v48.2c-38.586,1.437-75.998,13.65-108,35.256l-19.752-19.752
		c-3.124-3.123-8.188-3.123-11.312,0l-45.2,45.2c-3.123,3.124-3.123,8.188,0,11.312L67.556,156
		c-64.152,95.293-38.907,224.55,56.386,288.702s224.549,38.907,288.702-56.386C459.919,318.092,459.919,226.223,412.644,156z
		 M381.54,96.672l33.888,33.888l-12.384,12.384c-9.967-12.551-21.337-23.921-33.888-33.888L381.54,96.672z M64.74,130.56
		l33.888-33.888l12.384,12.384c-12.551,9.967-23.921,21.337-33.888,33.888L64.74,130.56z M240.1,464c-106.039,0-192-85.961-192-192
		s85.961-192,192-192s192,85.961,192,192C431.977,377.987,346.087,463.877,240.1,464z"/>
	
		<linearGradient id="SVGID_2_" gradientUnits="userSpaceOnUse" x1="-26.7745" y1="619.266" x2="-26.7745" y2="555.425" gradientTransform="matrix(8 0 0 -8 454.3001 4941)">
		<stop  offset="0" style="stop-color:#FFF33B"/>
		<stop  offset="0.04" style="stop-color:#FEE72E"/>
		<stop  offset="0.117" style="stop-color:#FED51B"/>
		<stop  offset="0.196" style="stop-color:#FDCA10"/>
		<stop  offset="0.281" style="stop-color:#FDC70C"/>
		<stop  offset="0.669" style="stop-color:#F3903F"/>
		<stop  offset="0.888" style="stop-color:#ED683C"/>
		<stop  offset="1" style="stop-color:#E93E3A"/>
	</linearGradient>
	<path style="fill:url(#SVGID_2_);" d="M392.66,359.584c31.265-54.215,31.265-120.985,0-175.2c-0.064-0.136-0.064-0.28-0.136-0.416
		s-0.208-0.2-0.288-0.32c-15.409-26.42-37.39-48.404-63.808-63.816c-0.128-0.08-0.2-0.208-0.328-0.288s-0.28-0.072-0.416-0.136
		c-54.215-31.265-120.985-31.265-175.2,0c-0.136,0.064-0.28,0.064-0.416,0.136s-0.2,0.208-0.328,0.288
		c-26.417,15.409-48.399,37.391-63.808,63.808c-0.08,0.128-0.208,0.2-0.288,0.328s-0.072,0.28-0.136,0.416
		c-13.825,23.931-21.776,50.8-23.2,78.4c-0.103,0.399-0.173,0.806-0.208,1.216c0.041,0.302,0.103,0.602,0.184,0.896
		c-0.096,2.36-0.184,4.72-0.184,7.104c-0.024,30.748,8.062,60.958,23.44,87.584c0.064,0.136,0.064,0.28,0.136,0.416
		s0.272,0.328,0.392,0.504c15.406,26.338,37.348,48.256,63.704,63.632c0.128,0.08,0.2,0.208,0.328,0.288s0.408,0.152,0.608,0.248
		c54.11,31.104,120.674,31.104,174.784,0c0.2-0.096,0.408-0.136,0.608-0.248s0.2-0.208,0.328-0.288
		c26.344-15.381,48.275-37.298,63.672-63.632c0.12-0.176,0.28-0.312,0.392-0.504S392.596,359.72,392.66,359.584L392.66,359.584z
		 M326.844,406.248l-11.816-20.464c-2.183-3.841-7.067-5.185-10.908-3.002c-3.841,2.183-5.185,7.067-3.002,10.908
		c0.018,0.031,0.036,0.062,0.054,0.093l11.824,20.472c-20.148,10.341-42.275,16.252-64.896,17.336V392c0-4.418-3.582-8-8-8
		s-8,3.582-8,8v39.592c-22.621-1.084-44.748-6.995-64.896-17.336l11.824-20.472c2.234-3.812,0.956-8.713-2.856-10.947
		c-3.812-2.234-8.713-0.956-10.947,2.856c-0.018,0.03-0.035,0.061-0.053,0.092l-11.816,20.464
		c-18.998-12.319-35.185-28.506-47.504-47.504l20.464-11.816c3.841-2.183,5.185-7.067,3.002-10.908
		c-2.183-3.841-7.067-5.185-10.908-3.002c-0.031,0.018-0.062,0.036-0.093,0.054l-20.472,11.824
		C86.194,322.363,80.11,297.367,80.1,272h40c4.418,0,8-3.582,8-8s-3.582-8-8-8H80.9c2.014-19.862,7.76-39.166,16.936-56.896
		l20.472,11.824c3.812,2.234,8.713,0.956,10.947-2.856c2.234-3.812,0.956-8.713-2.856-10.947c-0.03-0.018-0.061-0.035-0.092-0.053
		l-20.464-11.816c12.319-18.998,28.506-35.185,47.504-47.504l11.816,20.464c2.184,3.841,7.068,5.184,10.909,3
		c3.841-2.184,5.184-7.068,3-10.909c-0.017-0.031-0.035-0.061-0.053-0.092l-11.824-20.472c20.15-10.342,42.28-16.253,64.904-17.336
		V152c0,4.418,3.582,8,8,8s8-3.582,8-8v-39.592c22.621,1.084,44.748,6.995,64.896,17.336l-11.824,20.472
		c-2.235,3.811-0.957,8.713,2.854,10.948s8.713,0.957,10.948-2.854c0.018-0.031,0.036-0.062,0.054-0.093l11.816-20.464
		c18.998,12.319,35.185,28.506,47.504,47.504l-20.464,11.816c-3.841,2.184-5.184,7.068-3,10.909s7.068,5.184,10.909,3
		c0.031-0.017,0.061-0.035,0.092-0.053l20.472-11.824c10.341,20.148,16.252,42.275,17.336,64.896H352.1c-4.418,0-8,3.582-8,8
		s3.582,8,8,8h47.592c-1.084,22.621-6.995,44.748-17.336,64.896l-20.472-11.824c-3.811-2.235-8.713-0.957-10.948,2.854
		c-2.235,3.811-0.957,8.713,2.854,10.948c0.031,0.018,0.062,0.036,0.093,0.054l20.464,11.816
		C362.029,377.743,345.842,393.929,326.844,406.248L326.844,406.248z"/>
	
		<linearGradient id="SVGID_3_" gradientUnits="userSpaceOnUse" x1="-26.775" y1="619.266" x2="-26.775" y2="555.425" gradientTransform="matrix(8 0 0 -8 454.3001 4941)">
		<stop  offset="0" style="stop-color:#FFF33B"/>
		<stop  offset="0.04" style="stop-color:#FEE72E"/>
		<stop  offset="0.117" style="stop-color:#FED51B"/>
		<stop  offset="0.196" style="stop-color:#FDCA10"/>
		<stop  offset="0.281" style="stop-color:#FDC70C"/>
		<stop  offset="0.669" style="stop-color:#F3903F"/>
		<stop  offset="0.888" style="stop-color:#ED683C"/>
		<stop  offset="1" style="stop-color:#E93E3A"/>
	</linearGradient>
	<path style="fill:url(#SVGID_3_);" d="M248.1,249.472V184c0-4.418-3.582-8-8-8s-8,3.582-8,8v65.472
		c-12.497,4.418-19.046,18.131-14.627,30.627c4.418,12.497,18.131,19.046,30.627,14.627c12.497-4.418,19.046-18.131,14.627-30.627
		C260.311,257.265,254.935,251.888,248.1,249.472z M240.1,280c-4.418,0-8-3.582-8-8s3.582-8,8-8s8,3.582,8,8S244.518,280,240.1,280z
		"/>
</g>
<g>
</g>
<g>
</g>
<g>
</g>
<g>
</g>
<g>
</g>
<g>
</g>
<g>
</g>
<g>
</g>
<g>
</g>
<g>
</g>
<g>
</g>
<g>
</g>
<g>
</g>
<g>
</g>
<g>
</g>
</svg>
