<svg width="40" height="39" viewBox="0 0 40 39" fill="none" xmlns="http://www.w3.org/2000/svg">
<path d="M19.9227 0C8.92109 0 0 8.91953 0 19.9227C0 28.7252 5.70844 36.193 13.6244 38.8273C14.62 39.0117 14.9856 38.3952 14.9856 37.8689C14.9856 37.3939 14.967 35.8244 14.9586 34.1597C9.41594 35.3648 8.24641 31.8091 8.24641 31.8091C7.34016 29.5062 6.03437 28.8941 6.03437 28.8941C4.22687 27.6575 6.17063 27.6828 6.17063 27.6828C8.17125 27.8234 9.22469 29.7359 9.22469 29.7359C11.0016 32.7817 13.8853 31.9011 15.0222 31.3922C15.2009 30.1044 15.7173 29.2256 16.287 28.7281C11.862 28.2242 7.21016 26.5159 7.21016 18.8822C7.21016 16.7072 7.98844 14.9298 9.26297 13.5347C9.05609 13.0328 8.37422 11.0066 9.45594 8.26234C9.45594 8.26234 11.1289 7.72687 14.9361 10.3045C16.5252 9.86297 18.2295 9.64172 19.9227 9.63422C21.6158 9.64172 23.3214 9.86297 24.9136 10.3045C28.7163 7.72687 30.3869 8.26234 30.3869 8.26234C31.4712 11.0066 30.7891 13.0328 30.5822 13.5347C31.8595 14.9298 32.6325 16.707 32.6325 18.8822C32.6325 26.5341 27.9719 28.2191 23.5356 28.7122C24.2502 29.3305 24.8869 30.543 24.8869 32.4016C24.8869 35.0672 24.8638 37.2127 24.8638 37.8689C24.8638 38.3991 25.2223 39.0203 26.2323 38.8247C34.1439 36.1873 39.8452 28.7222 39.8452 19.9227C39.8452 8.91953 30.9253 0 19.9227 0Z" fill="#DF8C54"/>
<path d="M7.46174 28.3803C7.41799 28.4792 7.26205 28.5089 7.12033 28.4411C6.9758 28.3761 6.89455 28.2411 6.94142 28.1417C6.98439 28.0398 7.14033 28.0114 7.28455 28.0798C7.42939 28.1447 7.51189 28.2809 7.46174 28.3803V28.3803ZM8.44174 29.2547C8.34674 29.3428 8.16096 29.3019 8.03486 29.1627C7.90455 29.0238 7.88017 28.8381 7.97658 28.7486C8.07455 28.6606 8.25471 28.7017 8.38533 28.8408C8.51565 28.9813 8.54096 29.1658 8.44158 29.2548L8.44174 29.2547ZM9.11409 30.3734C8.9919 30.4583 8.79221 30.3788 8.66893 30.2016C8.5469 30.0245 8.5469 29.812 8.67158 29.7269C8.79533 29.6417 8.9919 29.7183 9.1169 29.8941C9.23877 30.0742 9.23877 30.2867 9.11393 30.3736L9.11409 30.3734ZM10.251 31.6692C10.1417 31.7895 9.90924 31.7573 9.73893 31.593C9.56487 31.4323 9.51627 31.2044 9.62581 31.0839C9.73627 30.9633 9.97018 30.9972 10.1417 31.1602C10.3147 31.3205 10.3675 31.5502 10.2511 31.6692H10.251ZM11.7203 32.1067C11.6724 32.2627 11.4483 32.3336 11.2227 32.2673C10.9974 32.1991 10.8499 32.0163 10.8953 31.8586C10.9422 31.7016 11.1672 31.6277 11.3946 31.6986C11.6196 31.7666 11.7674 31.948 11.7205 32.1067H11.7203ZM13.3929 32.2922C13.3985 32.4566 13.2071 32.5928 12.9702 32.5958C12.7319 32.6009 12.5393 32.468 12.5368 32.3064C12.5368 32.1405 12.7238 32.0055 12.9619 32.0016C13.1988 31.9969 13.3929 32.1289 13.3929 32.2922V32.2922ZM15.0357 32.2292C15.0641 32.3895 14.8994 32.5542 14.6643 32.598C14.433 32.6402 14.2189 32.5413 14.1894 32.3823C14.1607 32.218 14.3285 32.0534 14.5593 32.0108C14.7949 31.9698 15.0057 32.0663 15.0357 32.2292" fill="#DF8C54"/>
</svg>
