<svg height="512" viewBox="0 0 128 128" width="512" xmlns="http://www.w3.org/2000/svg" xmlns:xlink="http://www.w3.org/1999/xlink"><linearGradient id="a" gradientUnits="userSpaceOnUse" x1="107.845" x2="1.714" y1="126.286" y2="20.155"><stop offset="0" stop-color="#ff6a3d"/><stop offset="1" stop-color="#ffd400"/></linearGradient><path d="m87.5 121.693a1.75 1.75 0 0 1 -1.75 1.75h-4.5a1.75 1.75 0 0 1 0-3.5h4.5a1.751 1.751 0 0 1 1.75 1.75zm-13.737 0a1.749 1.749 0 0 1 -1.75 1.75h-45.7a21.775 21.775 0 0 1 -21.75-21.75v-75.386a21.775 21.775 0 0 1 21.75-21.75h5.506a1.75 1.75 0 1 1 0 3.5h-5.512a18.27 18.27 0 0 0 -18.25 18.25v25.943h13.684v-23.76a6.758 6.758 0 0 1 6.75-6.75h34.137a6.758 6.758 0 0 1 6.75 6.75v24.485a18.271 18.271 0 0 0 18.25 18.25h11.881a6.758 6.758 0 0 1 6.75 6.75v21.535a6.758 6.758 0 0 1 -6.75 6.75h-71.018a6.758 6.758 0 0 1 -6.75-6.75v-23.76h-13.684v25.943a18.27 18.27 0 0 0 18.25 18.25h45.7a1.75 1.75 0 0 1 1.753 1.75zm-52.022-49.443v-6.5h-13.684v6.5zm3.5 27.26a3.254 3.254 0 0 0 3.25 3.25h71.018a3.254 3.254 0 0 0 3.25-3.25v-21.535a3.254 3.254 0 0 0 -3.25-3.25h-11.881a21.775 21.775 0 0 1 -21.75-21.75v-24.485a3.254 3.254 0 0 0 -3.25-3.25h-34.137a3.254 3.254 0 0 0 -3.25 3.25zm-17.184-43.76v6.5h13.684v-6.5zm93.636-1.709h-11.881a3.254 3.254 0 0 1 -3.25-3.25v-24.484a21.775 21.775 0 0 0 -21.75-21.75h-23.637a1.75 1.75 0 0 0 0 3.5h23.637a18.27 18.27 0 0 1 18.25 18.25v24.484a6.758 6.758 0 0 0 6.75 6.75h11.881a18.271 18.271 0 0 1 18.25 18.25v25.9a18.27 18.27 0 0 1 -18.25 18.25h-6.293a1.75 1.75 0 0 0 0 3.5h6.29a21.775 21.775 0 0 0 21.75-21.75v-25.9a21.775 21.775 0 0 0 -21.747-21.75z" fill="url(#a)"/></svg>